<?xml version="1.0" ?>
<svg height="16" viewBox="0 0 16 16" width="16" xmlns="http://www.w3.org/2000/svg"><title/>
  <ellipse cx="5" cy="10.5" fill="#10161a18" rx="1" ry="1.5"/>
  <ellipse cx="11" cy="10.5" fill="#10161a18" rx="1" ry="1.5"/>
  <path fill="#10161a18" d="M14.5,4H14L12.41394,1.62091a0.49747,0.49747,0,0,0-.82788,0L10,4H6L4.41394,1.62091a0.49747,0.49747,0,0,0-.82788,0L2,4H1.5a0.5,0.5,0,0,0-.5.5v10a0.5,0.5,0,0,0,.5.5h13a0.5,0.5,0,0,0,.5-0.5V4.5A0.5,0.5,0,0,0,14.5,4ZM13,13H3V8H13v5Z" />
</svg>
